<?xml version="1.0" encoding="UTF-8"?>
<svg width="200px" height="200px" viewBox="0 0 200 200" version="1.1" xmlns="http://www.w3.org/2000/svg" xmlns:xlink="http://www.w3.org/1999/xlink">
    <!-- Generator: Sketch 57 (83077) - https://sketch.com -->
    <title>timerchart-2</title>
    <desc>Created with Sketch.</desc>
    <g id="Desktop" stroke="none" stroke-width="1" fill="none" fill-rule="evenodd">
        <g id="Artboard" transform="translate(-254.000000, -54.000000)">
            <g id="timerchart-2" transform="translate(254.000000, 54.000000)">
                <g id="Group">
                    <path d="M98.3463172,199.986603 C43.8805717,199.103524 0,154.67619 0,100 L100,100 L100,200 L98.3463172,199.986603 Z" id="Path" fill="#F5A623"></path>
                    <path d="M98.3463172,99.9866029 C43.8805717,99.1035238 0,54.6761902 0,0 L100,0 L100,100 L98.3463172,99.9866029 Z" id="Path" fill="#EE5366" transform="translate(50.000000, 50.000000) rotate(90.000000) translate(-50.000000, -50.000000) "></path>
                    <path d="M198.346317,99.9866029 C143.880572,99.1035238 100,54.6761902 100,0 L200,0 L200,100 L198.346317,99.9866029 Z" id="Path" fill="#33CCFF" opacity="0.500906808" transform="translate(150.000000, 50.000000) scale(-1, 1) rotate(90.000000) translate(-150.000000, -50.000000) "></path>
                    <path d="M198.346317,199.986603 C143.880572,199.103524 100,154.67619 100,100 L200,100 L200,200 L198.346317,199.986603 Z" id="Path" fill="#50E3C2" opacity="0.500906808" transform="translate(150.000000, 150.000000) scale(-1, -1) rotate(90.000000) translate(-150.000000, -150.000000) "></path>
                </g>
                <circle id="Oval" fill="#FFFFFF" cx="100" cy="100" r="50"></circle>
            </g>
        </g>
    </g>
</svg>