<svg xmlns="http://www.w3.org/2000/svg" width="32" height="32"><defs><linearGradient id="a" x1=".5" x2=".5" y2="1" gradientUnits="objectBoundingBox"><stop offset="0" stop-color="#9c6cff"/><stop offset="1" stop-color="#4e3680"/></linearGradient></defs><g style="display:inline"><g style="display:inline;fill:url(#a);stroke:#fff;stroke-width:.5"><circle cx="16" cy="16" r="16" style="display:inline;stroke:none" stroke="none"/></g><g transform="translate(4.831 3.334)" style="display:inline"><path d="M989.506 124.8c-2.6 0-2.631-12.2-2.631-12.715 0-.515.03-12.715 2.631-12.715s2.631 12.2 2.631 12.715c0 .515-.03 12.715-2.631 12.715zm-.007-24.553c-.6.165-1.747 4.377-1.747 11.838 0 7.461 1.146 11.674 1.761 11.838.6-.165 1.747-4.377 1.747-11.838 0-7.461-1.147-11.669-1.76-11.834z" transform="translate(-978.372 -99.375)" style="fill:#fff"/><path d="M988.416 126.449c-3.141 0-10.737-4.36-11.116-4.579a52.446 52.446 0 0 1-7.26-4.941c-2.755-2.322-2.709-3.221-2.436-3.695 1.3-2.252 11.878 3.82 12.327 4.079a52.449 52.449 0 0 1 7.26 4.941c2.755 2.322 2.709 3.221 2.436 3.695a1.293 1.293 0 0 1-1.211.5zm-19.661-12.865a.589.589 0 0 0-.4.094c-.157.6 2.917 3.7 9.38 7.432 6.463 3.732 10.682 4.844 11.133 4.395.157-.6-2.917-3.7-9.38-7.432-5.57-3.218-9.476-4.489-10.733-4.489z" transform="translate(-967.481 -106.877)" style="fill:#fff"/><path d="M968.814 126.449a1.293 1.293 0 0 1-1.211-.5c-.274-.474-.319-1.373 2.436-3.695a52.448 52.448 0 0 1 7.26-4.941c.449-.26 11.025-6.332 12.327-4.079.273.474.319 1.373-2.436 3.695a52.449 52.449 0 0 1-7.26 4.941c-.379.219-7.974 4.579-11.116 4.579zm19.669-12.872c-1.24 0-5.154 1.268-10.745 4.5-6.462 3.731-9.536 6.829-9.373 7.444.444.436 4.665-.676 11.126-4.407 6.461-3.731 9.537-6.829 9.373-7.444a.574.574 0 0 0-.381-.093z" transform="translate(-967.481 -106.877)" style="fill:#fff"/><circle cx="1.315" cy="1.315" r="1.315" transform="translate(9.818 11.4)" style="fill:#fff"/><circle cx="1.315" cy="1.315" r="1.315" transform="translate(15.573 5.974)" style="fill:#fff"/><circle cx="1.315" cy="1.315" r="1.315" transform="translate(1.543 8.604)" style="fill:#fff"/><circle cx="1.315" cy="1.315" r="1.315" transform="translate(8.119 19.566)" style="fill:#fff"/></g></g></svg>
