<?xml version="1.0" encoding="UTF-8"?>
<svg width="22px" height="14px" viewBox="0 0 22 14" version="1.1" xmlns="http://www.w3.org/2000/svg" xmlns:xlink="http://www.w3.org/1999/xlink">
    <!-- Generator: Sketch 54.1 (76490) - https://sketchapp.com -->
    <title>ion-ios-arrow-thin-right - Ionicons</title>
    <desc>Created with Sketch.</desc>
    <g id="Desktop" stroke="none" stroke-width="1" fill="none" fill-rule="evenodd">
        <g id="SWAP-Swap" transform="translate(-720.000000, -348.000000)" fill="#323C47">
            <path d="M735.5375,361.854922 C735.262499,361.564765 735.262499,361.274613 735.5375,360.984456 L740.14375,355.616581 L720.55,355.616581 C720.183331,355.616581 720,355.423146 720,355.03627 C720,354.649394 720.183331,354.455959 720.55,354.455959 L740.14375,354.455959 L735.5375,349.088084 C735.262499,348.797927 735.262499,348.507775 735.5375,348.217618 C735.812501,347.927461 736.087499,347.927461 736.3625,348.217618 C739.983351,352.424892 741.816666,354.552677 741.8625,354.601037 C741.954167,354.697756 742,354.842832 742,355.03627 C742,355.229708 741.954167,355.374784 741.8625,355.471503 L736.3625,361.854922 C736.270833,361.951641 736.133334,362 735.95,362 C735.766666,362 735.629167,361.951641 735.5375,361.854922 Z" id="ion-ios-arrow-thin-right---Ionicons"></path>
        </g>
    </g>
</svg>