<svg xmlns="http://www.w3.org/2000/svg" height="120" width="120"><circle r="60" cy="60" cx="60" style="opacity:1;fill:#fff;fill-opacity:1;stroke:none;stroke-width:4.80000019;stroke-miterlimit:4;stroke-dasharray:none;stroke-opacity:1"/><path style="fill:#343434" d="m127.961 0-2.795 9.5v275.668l2.795 2.79 127.962-75.638z" transform="matrix(.26147 0 0 .26147 27.032 6.496)"/><path style="fill:#8c8c8c" d="m0 212.32 127.962 75.639V0z" transform="matrix(.26147 0 0 .26147 27.032 6.496)"/><path style="fill:#3c3c3b" d="m127.961 312.187-1.575 1.92v98.199l1.575 4.601 128.038-180.32z" transform="matrix(.26147 0 0 .26147 27.032 6.496)"/><path style="fill:#8c8c8c" d="M127.962 312.185 0 236.585l127.962 180.32z" transform="matrix(.26147 0 0 .26147 27.032 6.496)"/><path style="fill:#141414" d="m255.921 212.321-127.96-58.162v133.799z" transform="matrix(.26147 0 0 .26147 27.032 6.496)"/><path style="fill:#393939" d="M127.961 287.958V154.159L.001 212.321z" transform="matrix(.26147 0 0 .26147 27.032 6.496)"/></svg>