<?xml version="1.0" encoding="UTF-8"?>
<svg width="32px" height="32px" viewBox="0 0 32 32" version="1.1" xmlns="http://www.w3.org/2000/svg" xmlns:xlink="http://www.w3.org/1999/xlink">
    <!-- Generator: Sketch 54.1 (76490) - https://sketchapp.com -->
    <title>coin/btc</title>
    <desc>Created with Sketch.</desc>
    <g id="coin/btc" stroke="none" stroke-width="1" fill="none" fill-rule="evenodd">
        <g id="btc">
            <circle id="Oval" fill="#F7931A" cx="16" cy="16" r="16"></circle>
            <path d="M23.189,14.02 C23.503,11.924 21.906,10.797 19.724,10.045 L20.432,7.205 L18.704,6.775 L18.014,9.54 C17.56,9.426 17.094,9.32 16.629,9.214 L17.324,6.431 L15.596,6 L14.888,8.839 C14.512,8.753 14.142,8.669 13.784,8.579 L13.786,8.57 L11.402,7.975 L10.942,9.821 C10.942,9.821 12.225,10.115 12.198,10.133 C12.898,10.308 13.024,10.771 13.003,11.139 L12.197,14.374 C12.245,14.386 12.307,14.404 12.377,14.431 L12.194,14.386 L11.064,18.918 C10.978,19.13 10.761,19.449 10.271,19.328 C10.289,19.353 9.015,19.015 9.015,19.015 L8.157,20.993 L10.407,21.554 C10.825,21.659 11.235,21.769 11.638,21.872 L10.923,24.744 L12.65,25.174 L13.358,22.334 C13.83,22.461 14.288,22.579 14.736,22.691 L14.03,25.519 L15.758,25.949 L16.473,23.083 C19.421,23.641 21.637,23.416 22.57,20.75 C23.322,18.604 22.533,17.365 20.982,16.558 C22.112,16.298 22.962,15.555 23.189,14.02 L23.189,14.02 Z M19.239,19.558 C18.706,21.705 15.091,20.544 13.919,20.253 L14.869,16.448 C16.041,16.741 19.798,17.32 19.239,19.558 Z M19.774,13.989 C19.287,15.942 16.279,14.949 15.304,14.706 L16.164,11.256 C17.139,11.499 20.282,11.952 19.774,13.989 Z" id="Shape" fill="#FFFFFF" fill-rule="nonzero"></path>
        </g>
    </g>
</svg>