<?xml version="1.0" standalone="no"?><!DOCTYPE svg PUBLIC "-//W3C//DTD SVG 1.1//EN" "http://www.w3.org/Graphics/SVG/1.1/DTD/svg11.dtd"><svg t="1542265692271" class="icon" style="" viewBox="0 0 2438 1024" version="1.1" xmlns="http://www.w3.org/2000/svg" p-id="2820" xmlns:xlink="http://www.w3.org/1999/xlink" width="304.75" height="128"><defs><style type="text/css"></style></defs><path d="M892.66980274 489.58965411h-114.51115716V248.87950996H889.9574364c49.31574412 0 79.4476629 24.41129347 79.44766289 62.23646872V311.70776755c0 27.17297444-14.44951321 42.31290819-31.66070739 51.92947757 27.86339499 10.65220081 45.07458916 26.82776477 45.07459038 59.1788927v0.69042056c-0.04931584 44.08827479-35.80322945 66.08309695-90.14917954 66.08309573z m24.06608259-169.5475266c0-15.83035429-12.37825157-24.65787146-34.52102004-24.65787145h-52.27468845V346.22878758h48.82258573c23.37566205 0 38.17038612-7.54530896 38.17038612-25.44692368z m13.413883 96.31364741c0-16.17556397-12.0330419-26.13734422-39.45259554-26.13734422h-60.95425931v52.96510899h62.92688926c23.37566205 0 37.47996558-8.28504534 37.47996559-26.13734422z m110.71384356 73.23387919V248.87950996h52.96510899v240.71014415z m292.59030831 0L1216.87150138 336.365639v152.87880545h-52.27468844V248.87950996h48.82258693l112.7851052 148.19380914v-147.94723115h52.27468845v240.71014536z m283.02305234 0l-21.99482095-54.00073921h-101.78769593l-22.04413679 54.00073921h-53.95142337l103.1685358-242.43619491h48.82258573l103.16853582 242.43619491z m-72.88866952-178.81888631l-32.00591705 78.06682302h64.11046699z m335.64295168 178.81888631L1762.84610047 336.365639v152.87880545h-52.27468846V248.87950996h48.82258571l112.83442226 148.19380914v-147.94723115h52.27468725v240.71014536z m219.75095463 4.14252328a121.51399188 121.51399188 0 0 1-123.2893597-123.83183273v-0.69042054c0-68.40093659 51.58426791-124.47293744 125.50856764-124.47293743 45.3704842 0 72.54345865 15.13993375 94.93280631 37.13475591L2162.30362409 320.73254806c-18.54271943-16.86598451-37.47996558-27.17297444-61.54604817-27.17297444-40.58685744 0-69.78177767 33.73196902-69.78177766 74.95992995v0.69042055c0 41.27727798 28.50449969 75.6503505 69.78177766 75.65035049 27.51818532 0 44.38416983-10.99741047 63.27209894-28.15928881l33.73196902 34.02786285c-24.85513482 26.48255389-52.3240043 43.00332874-98.77943455 43.00332874z m141.38823657-4.14252328V248.87950996h181.53125266v47.09653497h-128.96067038v48.82258573h113.42621112v47.14585201h-113.42621112v50.54863648H2423.67706516v47.09653496z m-550.56096248 243.47182755c-49.66095379 0-86.64776219-38.71285916-86.64776098-87.88065575s36.39501831-88.37381294 87.88065455-88.37381295a88.76833845 88.76833845 0 0 1 66.87214918 26.53187094l-19.23314119 22.14276847c-13.61114514-12.67414661-28.20860587-21.15645409-47.68832383-21.15645409-32.64702176 0-56.269263 26.77844893-56.269263 60.36247043s23.62224125 60.85562763 56.269263 60.85562763c20.90987489 0 34.52102004-8.53162333 48.92121741-22.14276847l19.23314118 19.47971798c-18.00024641 18.49340359-37.43064974 30.18123461-69.33793632 30.18123581z m138.08408257-74.76266779v71.80372225h-29.93465663v-170.38589345h29.93465663v70.86672373h81.32166117v-70.86672373h29.93465662v170.38589345h-29.93465662v-71.80372225z m325.48390805 71.80372225h-31.66070738l-17.26051001-41.12932925h-80.63124063l-17.55640507 41.12932925h-30.674393L2050.60346373 558.28648574H2078.46685993z m-89.40944315-135.81555758l-29.19492024 68.15435739H2093.26158281z m156.72543368-34.52102003v170.38589345h-29.93465663v-170.43520929z m173.59141699 0h29.58944696v170.38589345h-25.10171402l-93.69991273-121.21809806v121.21809806h-29.58944575v-170.43520929h27.71544746L2394.08761941 677.53195383z m-871.3105584 71.21193339h-744.66773006v28.35655217h744.66773006zM86.11081483 419.41335093l-70.07767149 70.17630318L86.11081483 559.76595851l70.17630318-70.1763044z m240.61151369-100.25890611l120.33041415 120.28109832 70.17630318-70.17630318-120.33041415-120.28109832L326.87027604 178.55525926 256.69397164 248.97814164l-120.33041415 120.28109832 70.17630318 70.17630318z m240.61151368 100.25890611l-70.17630439 70.17630318 70.17630439 70.1763044 70.22561902-70.1763044z m-240.61151368 240.61151369l-120.33041537-120.28109832-70.02835566 70.17630318 120.33041415 120.28109832 70.1763044 70.22561902 70.17630318-70.22561902 120.33041415-120.28109832-70.17630318-70.17630318z m0-100.25890611l70.17630318-70.1763044-70.17630318-70.17630318-70.02835688 70.17630318z" fill="#F0B90B" p-id="2821"></path></svg>