<svg id="Capa_1" enable-background="new 0 0 512 512" height="512" viewBox="0 0 512 512" width="512" xmlns="http://www.w3.org/2000/svg"><path d="m256 512c-68.38 0-132.667-26.629-181.02-74.98-48.351-48.353-74.98-112.64-74.98-181.02s26.629-132.667 74.98-181.02c48.353-48.351 112.64-74.98 181.02-74.98s132.667 26.629 181.02 74.98c48.351 48.353 74.98 112.64 74.98 181.02s-26.629 132.667-74.98 181.02c-48.353 48.351-112.64 74.98-181.02 74.98z" fill="#fcd232"/><path d="m256 0v512c68.38 0 132.667-26.629 181.02-74.98 48.351-48.353 74.98-112.64 74.98-181.02s-26.629-132.667-74.98-181.02c-48.353-48.351-112.64-74.98-181.02-74.98z" fill="#f7b90f"/><path d="m256 452c-108.075 0-196-87.925-196-196s87.925-196 196-196 196 87.925 196 196-87.925 196-196 196z" fill="#ffee78"/><path d="m452 256c0-108.075-87.925-196-196-196v392c108.075 0 196-87.925 196-196z" fill="#fcd232"/><path d="m332.577 251.655c9.875-10.699 15.923-24.982 15.923-40.655 0-33.084-26.916-60-60-60v-15c0-8.284-6.716-15-15-15s-15 6.716-15 15v15h-30v-15c0-8.284-6.716-15-15-15s-15 6.716-15 15v15h-10c-8.284 0-15 6.716-15 15s6.716 15 15 15h10v150h-10c-8.284 0-15 6.716-15 15s6.716 15 15 15h10v15c0 8.284 6.716 15 15 15s15-6.716 15-15v-15h30v15c0 8.284 6.716 15 15 15s15-6.716 15-15v-15h10c33.084 0 60-26.916 60-60 0-20.434-10.276-38.506-25.923-49.345zm-14.077-40.655c0 16.542-13.458 30-30 30h-60v-60h60c16.542 0 30 13.458 30 30zm-20 120h-70v-60h60 10c16.542 0 30 13.458 30 30s-13.458 30-30 30z" fill="#fcd232"/><path d="m332.577 251.655c9.875-10.699 15.923-24.982 15.923-40.655 0-33.084-26.916-60-60-60v-15c0-8.284-6.716-15-15-15s-15 6.716-15 15v15h-2.5v30h32.5c16.542 0 30 13.458 30 30s-13.458 30-30 30h-32.5v30h32.5 10c16.542 0 30 13.458 30 30s-13.458 30-30 30h-42.5v30h2.5v15c0 8.284 6.716 15 15 15s15-6.716 15-15v-15h10c33.084 0 60-26.916 60-60 0-20.434-10.276-38.506-25.923-49.345z" fill="#f7b90f"/></svg>