<?xml version="1.0" encoding="UTF-8"?>
<svg width="54px" height="42px" viewBox="0 0 54 42" version="1.1" xmlns="http://www.w3.org/2000/svg" xmlns:xlink="http://www.w3.org/1999/xlink">
    <!-- Generator: Sketch 57 (83077) - https://sketch.com -->
    <title>Group</title>
    <desc>Created with Sketch.</desc>
    <g id="Desktop" stroke="none" stroke-width="1" fill="none" fill-rule="evenodd">
        <g id="SWAP-Send" transform="translate(-574.000000, -332.000000)">
            <g id="Group" transform="translate(575.000000, 333.000000)">
                <rect id="Rectangle" stroke="#33CCFF" x="0" y="0" width="52" height="40" rx="8"></rect>
                <path d="M29.5375,26.8549223 C29.2624986,26.5647654 29.2624986,26.2746129 29.5375,25.984456 L34.14375,20.6165808 L14.55,20.6165808 C14.1833315,20.6165808 14,20.4231458 14,20.03627 C14,19.6493941 14.1833315,19.4559591 14.55,19.4559591 L34.14375,19.4559591 L29.5375,14.0880839 C29.2624986,13.797927 29.2624986,13.5077745 29.5375,13.2176177 C29.8125014,12.9274608 30.0874986,12.9274608 30.3625,13.2176177 C33.9833514,17.4248922 35.8166664,19.5526774 35.8625,19.6010368 C35.9541671,19.6977558 36,19.8428321 36,20.03627 C36,20.2297079 35.9541671,20.3747841 35.8625,20.4715031 L30.3625,26.8549223 C30.2708329,26.9516412 30.1333343,27 29.95,27 C29.7666657,27 29.6291671,26.9516412 29.5375,26.8549223 Z" id="ion-ios-arrow-thin-right---Ionicons" fill="#33CCFF"></path>
            </g>
        </g>
    </g>
</svg>