<svg width="18" height="18" viewBox="0 0 18 18" fill="none" xmlns="http://www.w3.org/2000/svg">
<path fill-rule="evenodd" clip-rule="evenodd" d="M15.2518 9C15.2518 9.28333 15.2268 9.55 15.1935 9.81667L16.9518 11.1917C17.1102 11.3167 17.1518 11.5417 17.0518 11.725L15.3852 14.6083C15.2852 14.7917 15.0685 14.8667 14.8768 14.7917L12.8018 13.9583C12.3685 14.2833 11.9018 14.5667 11.3935 14.775L11.0768 16.9833C11.0518 17.1833 10.8768 17.3333 10.6685 17.3333H7.33515C7.12682 17.3333 6.95182 17.1833 6.92682 16.9833L6.61015 14.775C6.10182 14.5667 5.63515 14.2917 5.20182 13.9583L3.12682 14.7917C2.94349 14.8583 2.71849 14.7917 2.61849 14.6083L0.951819 11.725C0.851819 11.5417 0.893486 11.3167 1.05182 11.1917L2.81015 9.81667C2.77682 9.55 2.75182 9.275 2.75182 9C2.75182 8.725 2.77682 8.45 2.81015 8.18334L1.05182 6.80833C0.893486 6.68333 0.843486 6.45833 0.951819 6.275L2.61849 3.39167C2.71849 3.20833 2.93515 3.13333 3.12682 3.20833L5.20182 4.04167C5.63515 3.71667 6.10182 3.43333 6.61015 3.225L6.92682 1.01667C6.95182 0.816668 7.12682 0.666668 7.33515 0.666668H10.6685C10.8768 0.666668 11.0518 0.816668 11.0768 1.01667L11.3935 3.225C11.9018 3.43333 12.3685 3.70833 12.8018 4.04167L14.8768 3.20833C15.0602 3.14167 15.2852 3.20833 15.3852 3.39167L17.0518 6.275C17.1518 6.45833 17.1102 6.68333 16.9518 6.80833L15.1935 8.18334C15.2268 8.45 15.2518 8.71667 15.2518 9ZM6.08516 9C6.08516 10.6083 7.39349 11.9167 9.00182 11.9167C10.6102 11.9167 11.9185 10.6083 11.9185 9C11.9185 7.39167 10.6102 6.08333 9.00182 6.08333C7.39349 6.08333 6.08516 7.39167 6.08516 9Z" fill="#D1D5DA"/>
</svg>
