<svg ns="http://www.w3.org/2000/svg" viewBox="0 0 104 104">
<symbol>
<path d="M14.838.45c-1.162.138-2.988.613-4.238 1.125C6.2 3.325 2.7 7.113 1.15 11.75c-.687 2.1-.725 2.488-.787 8.025l-.062 5.162H24.95V.313l-4.587.012c-2.538.013-5.013.063-5.525.125zM39.7 32.313v32h64l-.025-25.037-.037-25.025-.35-1.287c-.788-2.975-2.125-5.4-4.138-7.5-2.35-2.45-5.137-4-8.637-4.812-1.125-.263-1.25-.263-25.963-.3L39.7.313v32zM.325 52V64.313h24.625l-.025-12.288-.038-12.275-12.275-.037L.325 39.688v12.313zM.363 84.337c.063 5.6.087 5.838.837 8.125 1.638 4.9 5.513 8.775 10.413 10.413 2.225.75 2.925.813 8.412.813H24.95V79.188H.3l.063 5.15zM39.7 91.438v12.25h24.625V79.188H39.7v12.25zM79.2 91.438v12.25h4.863c5.237 0 6.038-.075 8.112-.7 1.338-.4 3.713-1.613 4.838-2.45 2.787-2.1 4.775-4.85 5.863-8.113.737-2.2.825-3.075.825-8.463V79.188H79.2v12.25z"/>
</symbol>
</svg>
