<svg xmlns="http://www.w3.org/2000/svg" viewBox="0 0 20 20">
  <g>
    <path d="M16.7,0H7.59V12.29h12.3V3.18A3.18,3.18,0,0,0,16.7,0Z" />
    <path d="M4.75,0H3.18A3.18,3.18,0,0,0,0,3.18V4.75H4.75Z" />
    <polygon points="0 7.59 4.75 7.59 4.75 12.34 0 12.34 0 7.59" />
    <path d="M15.18,19.89h1.57a3.18,3.18,0,0,0,3.18-3.19V15.18H15.18Z" />
    <polygon points="7.59 15.18 12.34 15.18 12.34 19.93 7.59 19.93 7.59 15.18" />
    <path d="M0,15.18v1.57a3.18,3.18,0,0,0,3.18,3.18H4.75V15.18Z" />
  </g>
</svg>
