<?xml version="1.0" encoding="UTF-8"?>
<svg width="250px" height="35px" viewBox="0 0 250 35" version="1.1" xmlns="http://www.w3.org/2000/svg" xmlns:xlink="http://www.w3.org/1999/xlink">
    <!-- Generator: Sketch 54.1 (76490) - https://sketchapp.com -->
    <title>Group</title>
    <desc>Created with Sketch.</desc>
    <defs>
        <linearGradient x1="30.2159209%" y1="100%" x2="69.7840791%" y2="9.09203013%" id="linearGradient-1">
            <stop stop-color="#33FF99" offset="0%"></stop>
            <stop stop-color="#00CCFF" offset="100%"></stop>
        </linearGradient>
    </defs>
    <g id="Symbols" stroke="none" stroke-width="1" fill="none" fill-rule="evenodd">
        <g id="Logo/BEPSwap-Copy" transform="translate(-1.000000, -2.000000)">
            <g id="Group" transform="translate(0.500000, -0.500000)">
                <g id="Group-3" transform="translate(72.500000, 6.500000)" fill="#00CCFF" fill-rule="nonzero">
                    <path d="M47.7692308,26.9819136 L28.0384615,27 L28.0384615,0 L47.5851917,0 L47.5851917,5.29027577 L33.7021155,5.29027577 L33.7021155,10.7659373 L45.9184508,10.7659373 L45.9184508,16.056213 L33.7021155,16.056213 L33.7021155,21.6901306 L47.7692308,21.6901306 L47.7692308,26.9804064 L47.7692308,26.9819136 Z M22.8461538,19.5980515 C22.8461538,24.5522002 18.8526954,27.0194778 12.7824539,26.9998842 L0,27 L0,0 L12.4760937,0 C17.9674839,0 21.3482221,2.73706539 21.3482221,6.97981826 L21.3482221,7.05668516 C21.3482221,10.107247 19.7302094,11.8043482 17.8150736,12.8819923 C20.931018,14.080212 22.8461538,15.8933671 22.8461538,19.5196774 L22.8461538,19.5980515 L22.8461538,19.5980515 Z M61.0645838,15.506587 C61.0645838,18.809367 61.0645838,22.6256559 61.0645838,26.9554538 L55.0384615,27 L55.0384615,0 L67.1092609,0 C71.7689444,0 75.8076923,3.53731719 75.8076923,8.22094452 C75.8076923,12.9045718 71.7406279,15.506587 67.1651804,15.506587 L61.0645838,15.506587 Z M15.5769231,7.77744335 L15.5769231,7.73337075 C15.5769231,6.11094674 14.2453554,5.19230769 11.8443862,5.19230769 L6.23076923,5.19230769 L6.23076923,10.3846154 L11.4770572,10.3846154 C13.9876326,10.3846154 15.5769231,9.61058969 15.5769231,7.77744335 L15.5769231,7.77744335 Z M17.6538462,18.7153376 L17.6538462,18.664513 C17.6538462,16.7538285 16.2832024,15.5769231 13.1921968,15.5769231 L6.23076923,15.5769231 L6.23076923,21.8076923 L13.3850906,21.8076923 C16.0479661,21.8076923 17.6522779,20.8293202 17.6522779,18.7153376 L17.6538462,18.7153376 Z M70.6153846,7.77744335 L70.6153846,7.73337075 C70.6153846,6.11094674 69.2838169,5.19230769 66.8828477,5.19230769 L61.2692308,5.19230769 L61.2692308,10.3846154 L66.5155187,10.3846154 C69.0260941,10.3846154 70.6153846,9.61058969 70.6153846,7.77744335 L70.6153846,7.77744335 Z" id="Shape"></path>
                </g>
                <path d="M154.694669,24.1546159 C154.774369,25.6609716 155.110245,26.8841141 155.702306,27.8240801 C156.829498,29.5835035 158.816287,30.4632021 161.662733,30.4632021 C162.937941,30.4632021 164.099273,30.2703914 165.146765,29.8847644 C167.173434,29.1376119 168.186754,27.7999881 168.186754,25.8718528 C168.186754,24.4257513 167.759793,23.3954195 166.90586,22.7808263 C166.04054,22.1782841 164.685652,21.6540801 162.841156,21.2081988 L159.442517,20.3947708 C157.222289,19.8645336 155.651074,19.2800764 154.728826,18.6413815 C153.134817,17.5327037 152.337824,15.8757373 152.337824,13.6704325 C152.337824,11.2843651 153.117738,9.32613203 154.67759,7.79567463 C156.237443,6.26521722 158.446251,5.5 161.304083,5.5 C163.934198,5.5 166.168625,6.17182457 168.007429,7.51549387 C169.846233,8.85916316 170.765621,11.0071942 170.765621,13.9596514 L167.571925,13.9596514 C167.401138,12.5376516 167.036798,11.4470664 166.478895,10.6878631 C165.442789,9.30201588 163.683712,8.60910265 161.201611,8.60910265 C159.197713,8.60910265 157.757433,9.05497725 156.880728,9.94673983 C156.004023,10.8385024 155.565677,11.8748596 155.565677,13.0558425 C155.565677,14.3573338 156.078029,15.3093363 157.10275,15.9118786 C157.774511,16.2975057 159.29449,16.7795323 161.662733,17.3579729 L165.180922,18.2075533 C166.877404,18.617282 168.186749,19.1776379 169.108998,19.8886378 C170.703007,21.1298749 171.5,22.9314493 171.5,25.2934151 C171.5,28.2338215 170.489527,30.3366625 168.468551,31.6020013 C166.447574,32.8673401 164.099292,33.5 161.423633,33.5 C158.303928,33.5 155.861715,32.6564535 154.096918,30.9693351 C152.332122,29.2942675 151.466816,27.0227172 151.500973,24.1546159 L154.694669,24.1546159 Z M177.200214,6.5 L181.945396,28.463921 L187.632762,6.5 L191.332976,6.5 L197.020343,28.463921 L201.765525,6.5 L205.5,6.5 L198.88758,33.5 L195.307281,33.5 L189.5,11.1133424 L183.658458,33.5 L180.078158,33.5 L173.5,6.5 L177.200214,6.5 Z M220.5,22.5 L216.621739,10.5 L212.5,22.5 L220.5,22.5 Z M215.201754,6.5 L219.149123,6.5 L228.5,33.5 L224.675439,33.5 L222.061404,25.4128659 L211.868421,25.4128659 L209.078947,33.5 L205.5,33.5 L215.201754,6.5 Z M231.5,6.5 L242.948496,6.5 C245.211649,6.5 247.036,7.17698438 248.421604,8.53097345 C249.807208,9.88496252 250.5,11.787258 250.5,14.237917 C250.5,16.3454836 249.882261,18.180387 248.646764,19.7426821 C247.411267,21.3049772 245.511863,22.086113 242.948496,22.086113 L234.946673,22.086113 L234.946673,33.5 L231.5,33.5 L231.5,6.5 Z M247.5,13.9381139 C247.5,12.0284777 246.811341,10.7318305 245.434003,10.0481336 C244.676467,9.68270937 243.63774,9.5 242.317791,9.5 L235.5,9.5 L235.5,18.5 L242.317791,18.5 C243.855818,18.5 245.104012,18.1640505 246.06241,17.4921415 C247.020808,16.8202324 247.5,15.6355684 247.5,13.9381139 Z" id="SWAP" fill="#50E3C2" fill-rule="nonzero"></path>
                <g id="Logo/Swap" transform="translate(0.000000, 0.000000)" fill="url(#linearGradient-1)">
                    <path d="M15.7304301,4.35393783 L31.5,-11 L47.332257,4.41497274 C49.3107779,6.34134657 49.3530515,9.50688922 47.4266776,11.4854101 C47.3993159,11.5135125 47.3716245,11.541292 47.3436091,11.5687427 L43.8417722,15 L31.5,3.14883721 L19.4050633,15 L15.7800691,11.5664654 C13.775221,9.66750647 13.6893809,6.50284555 15.5883399,4.49799745 C15.6347267,4.44902403 15.6820998,4.40099432 15.7304301,4.35393783 Z M15.7304301,35.6460622 C15.6820998,35.5990057 15.6347267,35.550976 15.5883399,35.5020026 C13.6893809,33.4971544 13.775221,30.3324935 15.7800691,28.4335346 L19.4050633,25 L31.5,36.8511628 L43.8417722,25 L47.3436091,28.4312573 C47.3716245,28.458708 47.3993159,28.4864875 47.4266776,28.5145899 C49.3530515,30.4931108 49.3107779,33.6586534 47.332257,35.5850273 L31.5,51 L15.7304301,35.6460622 Z M32,28 C27.581722,28 24,24.418278 24,20 C24,15.581722 27.581722,12 32,12 C36.418278,12 40,15.581722 40,20 C40,24.418278 36.418278,28 32,28 Z" id="Combined-Shape" transform="translate(31.500000, 20.000000) rotate(90.000000) translate(-31.500000, -20.000000) "></path>
                </g>
            </g>
        </g>
    </g>
</svg>