<?xml version="1.0" encoding="UTF-8"?>
<svg width="616px" height="331px" viewBox="0 0 616 331" version="1.1" xmlns="http://www.w3.org/2000/svg" xmlns:xlink="http://www.w3.org/1999/xlink">
    <!-- Generator: Sketch 54.1 (76490) - https://sketchapp.com -->
    <title>Combined Shape</title>
    <desc>Created with Sketch.</desc>
    <defs>
        <linearGradient x1="35.5811785%" y1="100%" x2="64.4188215%" y2="9.09203013%" id="linearGradient-1">
            <stop stop-color="#33FF99" stop-opacity="0.203562063" offset="0%"></stop>
            <stop stop-color="#00CCFF" stop-opacity="0.256610577" offset="100%"></stop>
        </linearGradient>
    </defs>
    <g id="Symbols" stroke="none" stroke-width="1" fill="none" fill-rule="evenodd">
        <g id="Logo/Swap-L" fill="url(#linearGradient-1)">
            <path d="M162.310812,-1.47142243 L307.591221,-142.601869 L453.689307,-0.677101963 C479.438487,24.3365477 480.034752,65.4879517 455.021102,91.2371315 C454.63154,91.6381495 454.236819,92.0341246 453.83704,92.4249581 L430.338012,115.398131 L307.591221,-2.20186907 L187.299365,115.398131 L162.956761,92.3935205 C136.865764,67.7366184 135.703201,26.597318 160.360103,0.506321307 C160.996176,-0.166747481 161.646561,-0.826145938 162.310812,-1.47142243 Z M169.796893,339.539923 C169.030449,338.795373 168.280005,338.034529 167.546074,337.257911 C139.095802,307.152915 140.437222,259.684492 170.542218,231.23422 L187.299365,215.398131 L307.591221,332.998131 L430.338012,215.398131 L453.83704,238.371304 C454.236819,238.762137 454.63154,239.158112 455.021102,239.55913 C480.034752,265.30831 479.438487,306.459714 453.689307,331.473364 L307.591221,473.398131 L169.796893,339.539923 Z M312.089828,245.398131 C268.196785,245.398131 232.614444,209.804769 232.614444,165.898131 C232.614444,121.991493 268.196785,86.3981309 312.089828,86.3981309 C355.98287,86.3981309 391.565212,121.991493 391.565212,165.898131 C391.565212,209.804769 355.98287,245.398131 312.089828,245.398131 Z" id="Combined-Shape" transform="translate(308.000000, 165.398131) rotate(90.000000) translate(-308.000000, -165.398131) "></path>
        </g>
    </g>
</svg>