<?xml version="1.0" encoding="UTF-8"?>
<svg width="68px" height="82px" viewBox="0 0 68 82" version="1.1" xmlns="http://www.w3.org/2000/svg" xmlns:xlink="http://www.w3.org/1999/xlink">
    <!-- Generator: Sketch 54.1 (76490) - https://sketchapp.com -->
    <title>asset-market</title>
    <desc>Created with Sketch.</desc>
    <g id="Desktop" stroke="none" stroke-width="1" fill="none" fill-rule="evenodd">
        <g id="HOME-3" transform="translate(-842.000000, -414.000000)" fill-rule="nonzero">
            <g id="Group-2" transform="translate(471.000000, 362.000000)">
                <g id="asset-market" transform="translate(371.000000, 52.000000)">
                    <path d="M18.040941,59 C17.7238513,59 17.4294108,58.932958 17.1349703,58.8212212 L5.3573517,53.7260258 C4.2022391,53.2343841 3.68130597,51.9158905 4.2022391,50.7761758 C4.70052297,49.636461 6.0368297,49.122472 7.19194229,49.636461 L16.5234401,53.6813311 L21.5968759,34.6860849 C21.8007193,33.9486224 22.3669509,33.3452439 23.0917275,33.1217705 C23.8391533,32.898297 24.6318776,33.0547284 25.2434078,33.5463701 L35.0958388,41.7254996 L44.5405829,4.69594319 C44.8350234,3.48918638 46.0807331,2.77407122 47.2811442,3.06458675 C48.5042046,3.35510228 49.2289811,4.58420645 48.9345407,5.76861592 L38.6064751,46.2620114 C38.425281,46.9994739 37.8590493,47.6028523 37.1116235,47.8486731 C36.3641977,48.0944939 35.5488241,47.9380625 34.9599432,47.4240735 L25.0622137,39.2225966 L20.2379199,57.3239489 C20.079375,57.9496746 19.6263897,58.486011 19.0375087,58.7765265 C18.6977697,58.932958 18.38068,59 18.040941,59 Z" id="Shape" fill="#80E4FF"></path>
                    <path d="M51.8145533,12 C51.0699866,12 50.3692179,11.6089742 49.9531365,10.9189286 L46.6901825,5.35256116 L41.2592254,8.54977223 C40.2080724,9.17081323 38.8722322,8.77978741 38.2809586,7.67571452 C37.6896851,6.57164164 38.0619684,5.16854901 39.1131214,4.54750801 L46.3616972,0.292227087 C47.3909512,-0.305812394 48.6829934,0.0392103834 49.2961659,1.09728023 L53.67597,8.50376919 C54.3110416,9.58484056 53.9825563,11.0109347 52.9533023,11.6779787 C52.602918,11.8849924 52.2087357,12 51.8145533,12 Z" id="Shape" fill="#80E4FF"></path>
                    <path d="M29,72 C12.9984544,72 0,58.9791345 0,43 C0,27.0208655 12.9984544,14 29,14 C30.9049459,14 32.8098918,14.179289 34.6700155,14.5602782 C35.8802164,14.8068006 36.6646059,15.9721793 36.4404946,17.2047913 C36.1939722,18.4149923 35.0285935,19.1993818 33.7959815,18.9752705 C32.2272025,18.6615147 30.6136012,18.5046368 29,18.5046368 C15.4860896,18.4822257 4.48222566,29.4636785 4.48222566,43 C4.48222566,56.5363215 15.4860896,67.5177743 29,67.5177743 C42.5139104,67.5177743 53.5177743,56.5139104 53.5177743,43 C53.5177743,37.1955178 51.4559505,31.5479134 47.690881,27.1329212 C46.8840804,26.1916538 46.996136,24.7797527 47.9374034,23.9729521 C48.8786708,23.1661515 50.2905719,23.2782071 51.0973725,24.2194745 C55.557187,29.4412674 58,36.1197836 58,43 C58,59.0015456 45.0015456,72 29,72 Z" id="Shape" fill="#33CCFF"></path>
                    <path d="M58.0646148,82 C57.9959739,82 57.927333,82 57.858692,82 C57.2409238,81.9557771 56.6917965,81.6462167 56.3028314,81.2039876 L43.5127415,66.013418 C42.7119309,65.0626254 42.872093,63.6696038 43.8330658,62.8957028 C44.8169188,62.1218019 46.258378,62.2765821 47.0591886,63.2052632 L58.384939,76.6490279 L62.3661119,73.398644 L49.5989023,60.7508917 C48.7065705,59.8664335 48.7294508,58.4734118 49.644663,57.6331765 C50.5598751,56.7708298 52.0013343,56.7929412 52.8707858,57.6773995 L67.3540182,72.0056223 C67.7887439,72.4478514 68.0404273,73.0448607 67.9946667,73.6639814 C67.9489061,74.2831022 67.6743424,74.858 67.193856,75.2560062 L59.5518345,81.4914365 C59.1171088,81.8009969 58.6137421,82 58.0646148,82 Z" id="Shape" fill="#33CCFF"></path>
                </g>
            </g>
        </g>
    </g>
</svg>