<svg id="theme_switch_icon" width="30" height="30" viewBox="0 0 30 30" fill="none" xmlns="http://www.w3.org/2000/svg">
<path fill-rule="evenodd" clip-rule="evenodd" d="M27.375 16.7625L25 19.1375V22.5C25 23.875 23.875 25 22.5 25H19.15L16.775 27.375C15.8 28.35 14.2125 28.35 13.2375 27.375L10.8625 25H7.50002C6.12502 25 5.00002 23.875 5.00002 22.5V19.15L2.62502 16.775C1.65002 15.8 1.65002 14.2125 2.62502 13.2375L5.00002 10.8625V7.49999C5.00002 6.12499 6.12502 4.99999 7.50002 4.99999H10.8625L13.225 2.62499C14.2 1.64999 15.7875 1.64999 16.7625 2.62499L19.1375 4.99999H22.5C23.875 4.99999 25 6.12499 25 7.49999V10.8625L27.375 13.225C28.35 14.2 28.35 15.7875 27.375 16.7625ZM15 8.87499V21.125C15 21.8875 15.6875 22.5125 16.4375 22.3625C19.8875 21.6875 22.5 18.65 22.5 15C22.5 11.35 19.8875 8.31249 16.4375 7.63749C15.6875 7.48749 15 8.11249 15 8.87499Z" fill="#616B75"/>
</svg>
