<svg id="lock_icon" width="31" height="30" viewBox="0 0 31 30" fill="none" xmlns="http://www.w3.org/2000/svg">
<path d="M6.89581 30H22.6458H6.89581ZM22.6458 11.25H21.3333V13.125H22.6458C23.9583 13.125 25.0833 14.4375 25.0833 15.9375V25.3125C25.0833 26.8125 23.9583 28.125 22.6458 28.125H6.89581C5.58331 28.125 4.45831 26.8125 4.45831 25.3125V15.9375C4.45831 14.4375 5.58331 13.125 6.89581 13.125H8.20831V11.25H6.89581C4.64581 11.25 2.58331 13.3125 2.58331 15.9375V25.3125C2.58331 27.9375 4.45831 30 6.89581 30H22.6458C25.0833 30 26.9583 27.9375 26.9583 25.3125V15.9375C26.9583 13.3125 25.0833 11.25 22.6458 11.25ZM10.0833 6.5625C10.0833 5.25 10.6458 4.125 11.3958 3.1875C12.3333 2.4375 13.4583 1.875 14.7708 1.875C17.3958 1.875 19.4583 3.9375 19.4583 6.5625V11.25H21.3333V6.5625C21.3333 3 18.3333 0 14.7708 0C13.0833 0 11.3958 0.75 10.0833 1.875C8.77081 3 8.20831 4.875 8.20831 6.5625V11.25H10.0833V6.5625Z" fill="#F3BA2F"/>
<path d="M10.0833 11.25H8.20831V13.125H21.3333V11.25H19.4583H10.0833ZM14.7708 24.375C15.3333 24.375 15.7083 24 15.7083 23.4375V17.8125C15.7083 17.25 15.3333 16.875 14.7708 16.875C14.2083 16.875 13.8333 17.25 13.8333 17.8125V23.4375C13.8333 24 14.2083 24.375 14.7708 24.375Z" fill="#F3BA2F"/>
</svg>
